<svg width="512" height="512" viewBox="0 0 512 512" fill="none" xmlns="http://www.w3.org/2000/svg">
<path d="M456 372C456 432.751 366.457 482 256 482C145.543 482 56 432.751 56 372C56 311.249 145.543 262 256 262C366.457 262 456 311.249 456 372Z" fill="#267EC5"/>
<path d="M315.496 90.9492C396.898 104.88 456 146.644 456 196C456 256.751 366.457 306 256 306C145.543 306 56 256.751 56 196C56 146.644 115.101 104.88 196.503 90.9492C208.104 111.852 230.399 126 256 126C281.601 126 303.895 111.852 315.496 90.9492Z" fill="#267EC5"/>
<path d="M446.902 152C460.407 152 467.16 151.999 471.272 156.267C475.383 160.535 475.194 167.348 474.815 180.973L468.53 407.055C468.335 414.059 468.238 417.562 466.206 420.821C464.175 424.08 461.485 425.479 456.106 428.276C444.106 434.516 426.897 441.859 404.685 451.334C400.135 453.275 394.921 450.81 393.486 446.039L312.205 175.76C311.585 173.696 311.275 172.663 311.124 171.573C310.973 170.483 310.989 169.513 311.022 167.574C311.067 164.909 311.214 163.191 311.691 161.715C313.074 157.443 316.394 154.092 320.628 152.696C322.74 152 325.353 152 330.577 152H446.902Z" fill="black"/>
<path d="M181.423 152C186.647 152 189.259 152 191.372 152.696C195.605 154.092 198.925 157.443 200.308 161.715C200.786 163.191 200.933 164.908 200.978 167.574C201.011 169.513 201.028 170.483 200.877 171.573C200.726 172.663 200.415 173.696 199.794 175.76L118.513 446.039C117.078 450.81 111.864 453.276 107.314 451.334C85.102 441.859 67.893 434.516 55.893 428.276C50.5139 425.479 47.824 424.08 45.7924 420.821C43.7607 417.562 43.6637 414.059 43.469 407.055L37.1847 180.973C36.806 167.348 36.6166 160.535 40.7284 156.267C44.8403 152 51.5934 152 65.0978 152H181.423Z" fill="black"/>
<path d="M251.148 326.808C254.255 325.707 257.654 325.732 260.745 326.877C265.711 328.716 269.279 335.331 276.413 348.561L327.094 449.952C333.332 462.431 336.451 468.67 334.345 474.338C332.239 480.007 325.793 482.723 312.901 488.155L266.99 507.497C261.601 509.765 258.906 510 256.062 510C253.217 510 250.522 509.765 245.133 507.497L199.054 488.102C186.202 482.692 179.776 479.987 177.663 474.337C175.55 468.687 178.636 462.456 184.804 449.993L235.008 348.561C242.44 335.239 246.156 328.577 251.148 326.808Z" fill="black"/>
<path d="M312 58C312 88.9279 286.928 114 256 114C225.072 114 200 88.9279 200 58C200 27.0721 225.072 2 256 2C286.928 2 312 27.0721 312 58Z" fill="#267EC5"/>
</svg>
