<svg width="2400" height="512" viewBox="0 0 2400 512" fill="none" xmlns="http://www.w3.org/2000/svg">
<path d="M495 385.415C489.477 385.415 485 380.938 485 375.415V134.566C485 129.043 489.468 124.569 494.988 124.395C535.893 123.104 587.969 115.496 623.437 135.647C636.525 142.95 646.213 152.842 652.502 165.324C665.343 190.813 665.263 223.502 652.502 249.004C646.298 261.571 636.695 271.591 623.692 279.063C595.701 294.966 558.687 291.168 526.611 290.296C521.09 290.146 516.614 285.667 516.614 280.144V262.123C543.911 262.123 581.587 269.042 606.483 254.863C614.982 250.023 621.143 243.485 624.967 235.249C632.99 218.17 633.067 196.146 624.967 179.08C621.143 170.843 614.939 164.39 606.356 159.72C584.226 147.46 552.557 151.288 526.606 152.353C521.088 152.58 516.614 157.064 516.614 162.587V269.001V375.415C516.614 380.938 512.137 385.415 506.614 385.415H495Z" fill="black"/>
<path d="M760.048 389.491C742.371 389.491 726.862 385.288 713.52 376.881C700.262 368.475 689.894 356.715 682.416 341.6C666.897 309.877 666.977 266.986 682.416 235.249C689.894 220.049 700.262 208.247 713.52 199.84C740.637 182.755 779.35 182.658 806.449 199.84C819.791 208.247 830.159 220.049 837.552 235.249C853.151 266.951 853.231 309.912 837.552 341.6C830.159 356.715 819.791 368.475 806.449 376.881C793.191 385.288 777.724 389.491 760.048 389.491ZM760.048 362.489C773.475 362.489 784.523 359.05 793.191 352.172C801.859 345.294 808.276 336.251 812.44 325.043C824.241 293.28 821.38 247.319 793.191 224.677C775.324 210.325 744.772 210.325 726.904 224.677C718.236 231.64 711.82 240.768 707.656 252.061C695.964 283.769 698.559 329.681 726.904 352.172C735.573 359.05 746.62 362.489 760.048 362.489Z" fill="black"/>
<path d="M955.541 389.491C937.184 389.491 921.377 385.16 908.12 376.499C894.863 367.838 884.665 355.908 877.526 340.709C862.669 309.075 862.619 267.546 877.781 236.013C885.175 220.729 895.458 208.799 908.63 200.223C932.647 184.532 966.29 182.9 992.253 194.873C1003.3 199.968 1012.35 207.1 1019.41 216.271C1024.21 222.522 1027.78 229.483 1030.1 237.154C1031.86 242.965 1027.12 248.367 1021.05 248.367H1010.2C1005.64 248.367 1001.77 245.216 999.846 241.078C997.063 235.085 992.832 229.618 987.154 224.677C970.64 209.97 942.222 211.278 924.692 223.403C915.939 229.432 909.097 237.966 904.168 249.004C890.011 281.018 893.846 331.528 924.437 353.191C939.22 363.559 960.213 365.497 976.829 358.413C987.321 353.94 995.36 345.782 999.897 335.627C1001.75 331.476 1005.62 328.354 1010.17 328.354H1020.96C1027.06 328.354 1031.78 333.812 1029.92 339.622C1024.07 357.812 1010.99 372.809 993.528 381.466C982.65 386.816 969.988 389.491 955.541 389.491Z" fill="black"/>
<path d="M1094.58 298.835C1088.16 304.687 1077.84 300.132 1077.84 291.444V276.898H1079.8C1082.48 276.898 1085.05 275.821 1086.93 273.909L1166.72 192.767C1168.6 190.855 1171.17 189.778 1173.85 189.778H1182.91C1191.79 189.778 1196.27 200.499 1190.02 206.813L1116.54 281.053C1115.94 281.654 1115.13 281.992 1114.28 281.992C1113.49 281.992 1112.73 282.287 1112.15 282.819L1094.58 298.835ZM1060.34 385.415C1054.82 385.415 1050.34 380.938 1050.34 375.415V134.566C1050.34 129.043 1054.82 124.566 1060.34 124.566H1070.42C1075.95 124.566 1080.42 129.043 1080.42 134.566V375.415C1080.42 380.938 1075.95 385.415 1070.42 385.415H1060.34ZM1179.51 385.415C1176.5 385.415 1173.65 384.059 1171.75 381.724L1106.04 300.911C1102.78 296.897 1103.11 291.056 1106.82 287.443L1121.69 272.934L1199.76 369.113C1205.07 375.648 1200.42 385.415 1192 385.415H1179.51Z" fill="black"/>
<path d="M1300.93 389.491C1282.07 389.491 1265.79 385.33 1252.11 377.009C1238.51 368.602 1228.02 356.885 1220.62 341.855C1205.3 310.154 1205.45 267.866 1220.62 236.14C1228.02 220.771 1238.3 208.799 1251.47 200.223C1273.86 185.594 1303.09 183.789 1328.09 192.326C1350.19 199.878 1366.4 217.454 1374.74 238.942C1380.82 254.615 1381.81 271.204 1381.98 287.786C1382.03 293.309 1377.53 297.786 1372.01 297.786H1247.75C1242.22 297.786 1237.75 293.309 1237.75 287.786V271.803H1341.41C1346.94 271.803 1351.49 267.303 1350.71 261.835C1348.42 245.699 1340.46 230.611 1326.17 221.748C1308.8 210.852 1283.64 211.691 1266.77 223.149C1258.1 229.008 1251.43 236.65 1246.76 246.075C1235.37 269.042 1236.17 308.677 1247.39 331.284C1252.58 341.473 1259.76 349.243 1268.94 354.592C1289.56 366.421 1321.22 366.156 1339.05 348.988C1341.68 346.406 1343.98 343.474 1345.93 340.192C1348.59 335.734 1353.72 332.997 1358.72 334.399L1369.05 337.296C1374.47 338.816 1377.64 344.564 1375.15 349.615C1372.19 355.618 1368.32 361.098 1363.52 366.055C1347.19 382.759 1323.81 389.491 1300.93 389.491Z" fill="black"/>
<path d="M1484.23 189.778C1489.75 189.778 1494.23 194.256 1494.23 199.778V205.252C1494.23 210.775 1489.75 215.252 1484.23 215.252H1402.76C1397.23 215.252 1392.76 210.775 1392.76 205.252V199.778C1392.76 194.256 1397.23 189.778 1402.76 189.778H1484.23ZM1422.33 152.907C1422.33 147.384 1426.81 142.907 1432.33 142.907H1442.42C1447.94 142.907 1452.42 147.384 1452.42 152.907V329.373C1452.42 339.924 1454.53 352.724 1465.8 356.885C1471.16 358.707 1476.59 359.122 1482.03 358.75C1487.44 358.38 1492.63 361.611 1493.83 366.9L1495.87 375.884C1496.97 380.76 1494.31 385.793 1489.42 386.803C1476.41 389.484 1462.28 387.815 1450.38 382.485C1442.3 378.834 1435.59 373.273 1430.23 365.8C1424.97 358.328 1422.33 348.903 1422.33 337.525V152.907Z" fill="black"/>
<path d="M1695.22 189.778C1690.15 189.778 1686.02 185.927 1684.46 181.106C1681.61 172.294 1676.03 165.166 1667.72 159.72C1642.34 143.078 1596.63 143.832 1577.21 170.037C1569 181.318 1567.13 198.317 1575.05 210.285C1582.05 220.433 1593.28 226.497 1604.62 230.663C1641.8 243.776 1690.61 246.154 1712.97 283.648C1725.29 304.291 1722.14 333.209 1709.4 352.809C1702.1 364.187 1691.39 373.23 1677.28 379.938C1637.03 399.195 1573.27 394.079 1545.47 355.738C1539.72 347.721 1535.83 338.742 1533.79 328.8C1532.62 323.115 1537.28 318.165 1543.08 318.165H1555.8C1560.99 318.165 1565.18 322.188 1566.57 327.186C1568.23 333.108 1571.01 338.253 1574.92 342.619C1580.78 348.988 1588.18 353.743 1597.1 356.885C1624.39 366.144 1662.42 363.017 1681.49 339.053C1691.37 326.49 1693.87 305.546 1682.63 292.946C1664.77 272.907 1630.21 268.592 1605.77 261.614C1585.37 255.755 1569.22 247.391 1557.33 236.522C1545.43 225.654 1539.48 211.431 1539.48 193.854C1539.48 179.249 1543.43 166.513 1551.34 155.644C1559.32 144.69 1570.03 136.199 1583.46 130.171C1622.12 112.678 1678.17 118.582 1704.69 154.498C1710.35 162.087 1714.06 170.428 1715.8 179.522C1716.86 185.07 1712.25 189.778 1706.6 189.778H1695.22Z" fill="black"/>
<path d="M1759.7 385.415C1754.17 385.415 1749.7 380.938 1749.7 375.415V267.279C1749.7 261.756 1754.17 257.279 1759.7 257.279H1769.78C1775.3 257.279 1779.78 261.756 1779.78 267.279V375.415C1779.78 380.938 1775.3 385.415 1769.78 385.415H1759.7ZM1764.74 229.56C1753.46 229.56 1743.32 220.744 1743.32 209.181C1743.32 197.618 1753.46 188.802 1764.74 188.802C1775.93 188.802 1786.15 197.696 1786.15 209.181C1786.15 220.666 1775.93 229.56 1764.74 229.56Z" fill="black"/>
<path d="M1820.58 385.415C1815.05 385.415 1810.58 380.938 1810.58 375.415V365.925C1810.58 363.698 1811.32 361.535 1812.69 359.778L1921.41 220.248C1921.62 219.982 1921.73 219.654 1921.73 219.316C1921.73 218.478 1921.06 217.799 1920.22 217.799H1824.15C1818.62 217.799 1814.15 213.322 1814.15 207.799V199.778C1814.15 194.256 1818.62 189.778 1824.15 189.778H1950.49C1956.01 189.778 1960.49 194.256 1960.49 199.778V210.343C1960.49 212.536 1959.77 214.668 1958.44 216.411L1852.7 354.947C1852.5 355.212 1852.39 355.537 1852.39 355.871C1852.39 356.712 1853.07 357.394 1853.91 357.394H1954.06C1959.58 357.394 1964.06 361.871 1964.06 367.394V375.415C1964.06 380.938 1959.58 385.415 1954.06 385.415H1820.58Z" fill="black"/>
<path d="M2064.44 389.491C2045.58 389.491 2029.3 385.33 2015.62 377.009C2002.02 368.602 1991.53 356.885 1984.13 341.855C1968.8 310.154 1968.96 267.866 1984.13 236.14C1991.53 220.771 2001.81 208.799 2014.98 200.223C2037.37 185.594 2066.6 183.789 2091.59 192.326C2113.7 199.878 2129.91 217.454 2138.25 238.942C2144.33 254.615 2145.32 271.204 2145.48 287.786C2145.54 293.309 2141.04 297.786 2135.52 297.786H2011.32C2005.8 297.786 2001.32 293.309 2001.32 287.786V271.803H2104.92C2110.45 271.803 2115 267.303 2114.22 261.835C2111.93 245.699 2103.97 230.611 2089.68 221.748C2072.31 210.852 2047.15 211.691 2030.28 223.149C2021.61 229.008 2014.94 236.65 2010.27 246.075C1998.88 269.042 1999.68 308.677 2010.9 331.284C2016.09 341.473 2023.27 349.243 2032.45 354.592C2053.07 366.421 2084.73 366.156 2102.56 348.988C2105.19 346.406 2107.48 343.474 2109.44 340.192C2112.1 335.734 2117.23 332.997 2122.23 334.399L2132.56 337.296C2137.98 338.816 2141.15 344.564 2138.66 349.615C2135.7 355.618 2131.82 361.098 2127.03 366.055C2110.7 382.759 2087.32 389.491 2064.44 389.491Z" fill="black"/>
<path d="M2250.26 389.491C2233.94 389.491 2219.54 385.372 2207.04 377.136C2194.55 368.815 2184.78 357.097 2177.72 341.983C2162.85 309.929 2162.77 266.653 2177.72 234.612C2184.78 219.498 2194.59 207.822 2207.17 199.586C2227.01 186.592 2259.4 181.209 2280.98 193.6C2292.32 199.91 2299.89 209.464 2306.88 220.105C2307.18 220.573 2307.7 220.856 2308.26 220.856C2309.18 220.856 2309.92 220.116 2309.92 219.203V134.566C2309.92 129.043 2314.39 124.566 2319.92 124.566H2330C2335.52 124.566 2340 129.043 2340 134.566V375.415C2340 380.938 2335.52 385.415 2330 385.415H2320.94C2315.41 385.415 2310.94 380.938 2310.94 375.415V357.649C2310.94 356.383 2309.91 355.356 2308.64 355.356C2307.85 355.356 2307.11 355.767 2306.69 356.439C2299.8 367.361 2291.94 376.811 2280.47 383.25C2272.91 387.41 2262.84 389.491 2250.26 389.491ZM2254.34 362.489C2266.4 362.489 2276.6 359.347 2284.93 353.064C2293.26 346.695 2299.59 337.907 2303.92 326.698C2315.92 295.45 2314.74 245.223 2285.19 223.531C2267.79 210.581 2239.65 210.821 2222.47 224.04C2214.06 230.494 2207.72 239.282 2203.47 250.405C2191.45 282.283 2194.24 329.846 2222.72 352.554C2231.22 359.177 2241.76 362.489 2254.34 362.489Z" fill="black"/>
<path d="M270.762 132C341.692 149.27 394 208.977 394 279.981C394 364.491 319.903 433 228.5 433C137.097 433 63 364.491 63 279.981C63 208.977 115.307 149.271 186.237 132C196.253 144.887 211.3 153.227 228.5 153.227C245.7 153.227 260.746 144.887 270.762 132Z" fill="#267EC5"/>
<path d="M375.241 176C385.699 176 390.929 176 394.113 179.286C397.297 182.572 397.15 187.818 396.857 198.309L391.989 372.392C391.839 377.785 391.764 380.483 390.19 382.993C388.617 385.502 386.534 386.579 382.368 388.732C373.076 393.537 359.749 399.191 342.549 406.487C339.025 407.982 334.987 406.084 333.876 402.41L270.933 194.295C270.453 192.706 270.213 191.91 270.096 191.071C269.979 190.232 269.991 189.485 270.017 187.992C270.052 185.94 270.165 184.617 270.535 183.481C271.606 180.191 274.177 177.611 277.455 176.536C279.092 176 281.115 176 285.16 176H375.241Z" fill="black"/>
<path d="M225.253 310.624C227.653 309.774 230.277 309.793 232.664 310.677C236.498 312.096 239.253 317.201 244.762 327.411L283.896 405.658C288.712 415.289 291.12 420.104 289.494 424.479C287.868 428.853 282.891 430.949 272.936 435.141L237.486 450.068C233.325 451.819 231.244 452 229.048 452C226.851 452 224.77 451.819 220.609 450.068L185.029 435.1C175.105 430.925 170.143 428.838 168.512 424.478C166.881 420.117 169.263 415.308 174.026 405.69L212.791 327.411C218.53 317.13 221.399 311.989 225.253 310.624Z" fill="black"/>
<path d="M171.84 176C175.885 176 177.908 176 179.544 176.536C182.822 177.611 185.393 180.191 186.464 183.481C186.834 184.617 186.948 185.939 186.983 187.992C187.008 189.485 187.021 190.232 186.905 191.071C186.788 191.91 186.547 192.706 186.066 194.295L123.123 402.41C122.012 406.084 117.974 407.982 114.45 406.487C97.2497 399.191 83.9232 393.537 74.6306 388.732C70.4651 386.579 68.382 385.502 66.8087 382.992C65.2355 380.483 65.1603 377.785 65.0095 372.392L60.1431 198.309C59.8498 187.818 59.7031 182.572 62.8873 179.286C66.0714 176 71.301 176 81.7587 176H171.84Z" fill="black"/>
<circle cx="229" cy="103" r="43" fill="#267EC5"/>
</svg>
