<svg width="2284" height="396" viewBox="0 0 2284 396" fill="none" xmlns="http://www.w3.org/2000/svg">
<path d="M437 327.732C431.477 327.732 427 323.255 427 317.732V86.8836C427 75.8379 435.952 66.8399 446.985 66.2994C486.102 64.3832 532.801 59.4219 565.437 77.9646C578.525 85.267 588.213 95.1592 594.502 107.641C607.343 133.13 607.263 165.82 594.502 191.321C588.298 203.888 578.695 213.908 565.692 221.38C540.57 235.653 508.179 237.35 478.613 237.483C467.568 237.532 458.614 228.506 458.614 217.46V209.439C485.911 209.439 523.587 211.359 548.483 197.18C556.982 192.34 563.143 185.802 566.967 177.566C574.99 160.487 575.067 138.464 566.967 121.397C563.143 113.16 556.939 106.707 548.356 102.037C526.226 89.7773 494.557 93.6053 468.606 94.6704C463.088 94.8969 458.614 99.3816 458.614 104.904V216.317V317.732C458.614 323.255 454.137 327.732 448.614 327.732H437Z" fill="black"/>
<path d="M702.048 331.808C684.371 331.808 668.862 327.605 655.52 319.198C642.262 310.792 631.894 299.032 624.416 283.918C608.897 252.194 608.977 209.303 624.416 177.566C631.894 162.367 642.262 150.564 655.52 142.158C682.637 125.072 721.35 124.975 748.449 142.158C761.791 150.564 772.159 162.367 779.552 177.566C795.151 209.268 795.231 252.23 779.552 283.918C772.159 299.032 761.791 310.792 748.449 319.198C735.191 327.605 719.724 331.808 702.048 331.808ZM702.048 304.806C715.475 304.806 726.523 301.367 735.191 294.489C743.859 287.611 750.276 278.568 754.44 267.36C766.241 235.597 763.38 189.637 735.191 166.994C717.324 152.643 686.772 152.643 668.904 166.994C660.236 173.957 653.82 183.085 649.656 194.378C637.964 226.086 640.559 271.999 668.904 294.489C677.573 301.367 688.62 304.806 702.048 304.806Z" fill="black"/>
<path d="M897.541 331.808C879.184 331.808 863.377 327.477 850.12 318.816C836.863 310.155 826.665 298.225 819.526 283.026C804.669 251.392 804.619 209.863 819.781 178.33C827.175 163.046 837.458 151.116 850.63 142.54C874.647 126.849 908.29 125.218 934.253 137.19C945.301 142.285 954.352 149.418 961.405 158.588C966.213 164.839 969.778 171.8 972.098 179.471C973.856 185.282 969.119 190.685 963.049 190.685H952.204C947.641 190.685 943.768 187.533 941.846 183.395C939.063 177.402 934.832 171.935 929.154 166.994C912.64 152.287 884.222 153.595 866.692 165.721C857.939 171.749 851.097 180.283 846.168 191.321C832.011 223.335 835.846 273.845 866.437 295.508C881.22 305.876 902.213 307.814 918.829 300.73C929.321 296.257 937.36 288.099 941.897 277.944C943.752 273.793 947.622 270.671 952.168 270.671H962.956C969.058 270.671 973.785 276.129 971.917 281.939C966.067 300.13 952.993 315.126 935.528 323.784C924.65 329.133 911.988 331.808 897.541 331.808Z" fill="black"/>
<path d="M1047.33 231.353C1036.78 240.965 1019.84 233.483 1019.84 219.215H1021.8C1024.48 219.215 1027.05 218.138 1028.93 216.226L1108.72 135.084C1110.6 133.173 1113.17 132.096 1115.85 132.096H1124.91C1133.79 132.096 1138.27 142.816 1132.02 149.13L1058.54 223.37C1057.94 223.971 1057.13 224.31 1056.28 224.31C1055.49 224.31 1054.73 224.604 1054.15 225.136L1047.33 231.353ZM1002.34 327.732C996.816 327.732 992.339 323.255 992.339 317.732V76.8836C992.339 71.3607 996.816 66.8836 1002.34 66.8836H1012.42C1017.95 66.8836 1022.42 71.3608 1022.42 76.8836V317.732C1022.42 323.255 1017.95 327.732 1012.42 327.732H1002.34ZM1121.51 327.732C1118.5 327.732 1115.65 326.376 1113.75 324.041L1053.81 250.316C1047.28 242.288 1047.95 230.606 1055.36 223.381L1063.69 215.251L1141.76 311.43C1147.07 317.966 1142.42 327.732 1134 327.732H1121.51Z" fill="black"/>
<path d="M1426.23 132.096C1431.75 132.096 1436.23 136.573 1436.23 142.096V147.569C1436.23 153.092 1431.75 157.569 1426.23 157.569H1344.76C1339.23 157.569 1334.76 153.092 1334.76 147.569V142.096C1334.76 136.573 1339.23 132.096 1344.76 132.096H1426.23ZM1364.33 95.2245C1364.33 89.7017 1368.81 85.2245 1374.33 85.2245H1384.42C1389.94 85.2245 1394.42 89.7017 1394.42 95.2245V271.69C1394.42 282.241 1396.53 295.041 1407.8 299.202C1413.16 301.025 1418.59 301.439 1424.03 301.067C1429.44 300.697 1434.63 303.928 1435.83 309.217L1437.87 318.201C1438.97 323.078 1436.31 328.11 1431.42 329.12C1418.41 331.801 1404.28 330.132 1392.38 324.803C1384.3 321.151 1377.59 315.59 1372.23 308.117C1366.97 300.645 1364.33 291.22 1364.33 279.842V95.2245Z" fill="black"/>
<path d="M1637.22 132.096C1632.15 132.096 1628.02 128.244 1626.46 123.423C1623.61 114.611 1618.03 107.483 1609.72 102.037C1584.34 85.395 1538.63 86.1496 1519.21 112.354C1511 123.635 1509.13 140.634 1517.05 152.602C1524.05 162.75 1535.28 168.814 1546.62 172.981C1583.8 186.093 1632.61 188.471 1654.97 225.965C1667.29 246.608 1664.14 275.526 1651.4 295.126C1644.1 306.504 1633.39 315.547 1619.28 322.255C1579.03 341.512 1515.27 336.397 1487.47 298.055C1481.72 290.038 1477.83 281.059 1475.79 271.117C1474.62 265.432 1479.28 260.482 1485.08 260.482H1497.8C1502.99 260.482 1507.18 264.505 1508.57 269.504C1510.23 275.425 1513.01 280.57 1516.92 284.937C1522.78 291.305 1530.18 296.06 1539.1 299.202C1566.39 308.461 1604.42 305.334 1623.49 281.37C1633.37 268.807 1635.87 247.863 1624.63 235.263C1606.77 215.224 1572.21 210.91 1547.77 203.931C1527.37 198.072 1511.22 189.708 1499.33 178.839C1487.43 167.971 1481.48 153.748 1481.48 136.171C1481.48 121.567 1485.43 108.83 1493.34 97.9613C1501.32 87.0076 1512.03 78.5165 1525.46 72.4878C1564.12 54.9955 1620.17 60.8997 1646.69 96.8149C1652.35 104.404 1656.06 112.746 1657.8 121.839C1658.86 127.387 1654.25 132.096 1648.6 132.096H1637.22Z" fill="black"/>
<path d="M1701.7 327.732C1696.17 327.732 1691.7 323.255 1691.7 317.732V209.596C1691.7 204.073 1696.17 199.596 1701.7 199.596H1711.78C1717.3 199.596 1721.78 204.073 1721.78 209.596V317.732C1721.78 323.255 1717.3 327.732 1711.78 327.732H1701.7ZM1706.74 171.877C1695.46 171.877 1685.32 163.061 1685.32 151.498C1685.32 139.935 1695.46 131.119 1706.74 131.119C1717.93 131.119 1728.15 140.013 1728.15 151.498C1728.15 162.983 1717.93 171.877 1706.74 171.877Z" fill="black"/>
<path d="M1762.58 326.732C1757.05 326.732 1752.58 322.255 1752.58 316.732V307.28C1752.58 305.03 1753.34 302.845 1754.73 301.08L1863.41 163.567C1863.62 163.3 1863.73 162.969 1863.73 162.629C1863.73 161.794 1863.06 161.116 1862.22 161.116H1766.15C1760.62 161.116 1756.15 156.639 1756.15 151.116V146.096C1756.15 140.573 1760.62 136.096 1766.15 136.096H1892.49C1898.01 136.096 1902.49 140.573 1902.49 146.096V156.563C1902.49 158.815 1901.73 161.002 1900.33 162.768L1794.71 296.261C1794.5 296.528 1794.39 296.859 1794.39 297.199C1794.39 298.034 1795.07 298.711 1795.9 298.711H1896.06C1901.58 298.711 1906.06 303.188 1906.06 308.711V316.732C1906.06 322.255 1901.58 326.732 1896.06 326.732H1762.58Z" fill="black"/>
<path d="M2006.44 331.808C1987.58 331.808 1971.3 327.647 1957.62 319.326C1944.02 310.92 1933.53 299.202 1926.13 284.172C1910.8 252.472 1910.96 210.183 1926.13 178.457C1933.53 163.088 1943.81 151.116 1956.98 142.54C1979.37 127.912 2008.6 126.106 2033.59 134.643C2055.7 142.196 2071.91 159.771 2080.25 181.259C2085.11 193.78 2086.72 206.886 2087.25 220.106C2087.7 231.143 2078.56 240.103 2067.52 240.103H1964.32C1953.28 240.103 1944.32 231.149 1944.32 220.103V214.12H2046.92C2052.45 214.12 2057 209.62 2056.22 204.152C2053.93 188.016 2045.97 172.928 2031.68 164.065C2014.31 153.169 1989.15 154.008 1972.28 165.466C1963.61 171.325 1956.94 178.967 1952.27 188.392C1940.88 211.359 1941.68 250.995 1952.9 273.601C1958.09 283.79 1965.27 291.56 1974.45 296.909C1995.07 308.738 2026.73 308.473 2044.56 291.305C2047.19 288.723 2049.48 285.791 2051.44 282.509C2054.1 278.051 2059.23 275.314 2064.23 276.716L2074.56 279.613C2079.98 281.134 2083.15 286.881 2080.66 291.932C2077.7 297.935 2073.82 303.415 2069.03 308.372C2052.7 325.076 2029.32 331.808 2006.44 331.808Z" fill="black"/>
<path d="M2192.26 331.808C2175.94 331.808 2161.54 327.69 2149.04 319.453C2136.55 311.132 2126.78 299.414 2119.72 284.3C2104.85 252.246 2104.77 208.97 2119.72 176.929C2126.78 161.815 2136.59 150.139 2149.17 141.903C2169.01 128.91 2201.4 123.526 2222.98 135.917C2234.32 142.228 2241.89 151.781 2248.88 162.422C2249.18 162.89 2249.7 163.173 2250.26 163.173C2251.18 163.173 2251.92 162.433 2251.92 161.52V76.8836C2251.92 71.3608 2256.39 66.8836 2261.92 66.8836H2272C2277.52 66.8836 2282 71.3608 2282 76.8836V317.732C2282 323.255 2277.52 327.732 2272 327.732H2262.94C2257.41 327.732 2252.94 323.255 2252.94 317.732V299.966C2252.94 298.7 2251.91 297.673 2250.64 297.673C2249.85 297.673 2249.11 298.085 2248.69 298.756C2241.8 309.678 2233.94 319.128 2222.47 325.567C2214.91 329.728 2204.84 331.808 2192.26 331.808ZM2196.34 304.806C2208.4 304.806 2218.6 301.664 2226.93 295.381C2235.26 289.012 2241.59 280.224 2245.92 269.016C2257.92 237.768 2256.74 187.54 2227.19 165.848C2209.79 152.898 2181.65 153.139 2164.47 166.357C2156.06 172.811 2149.72 181.599 2145.47 192.723C2133.45 224.6 2136.24 272.163 2164.72 294.871C2173.22 301.494 2183.76 304.806 2196.34 304.806Z" fill="black"/>
<path d="M1245.71 331.808C1226.84 331.808 1210.57 327.647 1196.88 319.326C1183.29 310.92 1172.79 299.202 1165.4 284.172C1150.07 252.472 1150.23 210.183 1165.4 178.457C1172.79 163.088 1183.07 151.116 1196.25 142.54C1218.64 127.912 1247.87 126.106 1272.86 134.643C1294.97 142.196 1311.18 159.771 1319.51 181.259C1324.37 193.78 1325.98 206.886 1326.52 220.106C1326.96 231.143 1317.83 240.103 1306.78 240.103H1203.59C1192.54 240.103 1183.59 231.149 1183.59 220.103V214.12H1286.19C1291.71 214.12 1296.26 209.62 1295.49 204.152C1293.2 188.016 1285.23 172.928 1270.95 164.065C1253.57 153.169 1228.42 154.008 1211.54 165.466C1202.87 171.325 1196.2 178.967 1191.53 188.392C1180.14 211.359 1180.95 250.995 1192.17 273.601C1197.35 283.79 1204.53 291.56 1213.71 296.909C1234.33 308.738 1265.99 308.473 1283.82 291.305C1286.45 288.723 1288.75 285.791 1290.71 282.509C1293.37 278.051 1298.5 275.314 1303.49 276.716L1313.82 279.613C1319.24 281.134 1322.41 286.881 1319.92 291.932C1316.96 297.935 1313.09 303.415 1308.3 308.372C1291.96 325.076 1268.59 331.808 1245.71 331.808Z" fill="black"/>
<path d="M212.762 74C283.692 91.2704 336 150.977 336 221.981C336 306.491 261.903 375 170.5 375C79.0969 375 5 306.491 5 221.981C5 150.977 57.3071 91.2707 128.237 74C138.253 86.8873 153.3 95.2272 170.5 95.2272C187.7 95.2272 202.746 86.887 212.762 74Z" fill="#267EC5"/>
<path d="M317.241 118C327.699 118 332.929 118 336.113 121.286C339.297 124.572 339.15 129.818 338.857 140.309L333.989 314.392C333.839 319.785 333.764 322.483 332.19 324.993C330.617 327.502 328.534 328.579 324.368 330.732C315.076 335.537 301.749 341.191 284.549 348.487C281.025 349.982 276.987 348.084 275.876 344.41L212.933 136.295C212.453 134.706 212.213 133.91 212.096 133.071C211.979 132.232 211.991 131.485 212.017 129.992C212.052 127.94 212.165 126.617 212.535 125.481C213.606 122.191 216.177 119.611 219.455 118.536C221.092 118 223.115 118 227.16 118H317.241Z" fill="black"/>
<path d="M167.253 252.624C169.653 251.774 172.277 251.793 174.664 252.677C178.498 254.096 181.253 259.201 186.762 269.411L225.896 347.658C230.712 357.289 233.12 362.104 231.494 366.479C229.868 370.853 224.891 372.949 214.936 377.141L179.486 392.068C175.325 393.819 173.244 394 171.048 394C168.851 394 166.77 393.819 162.609 392.068L127.029 377.1C117.105 372.925 112.143 370.838 110.512 366.478C108.881 362.117 111.263 357.308 116.026 347.69L154.791 269.411C160.53 259.13 163.399 253.989 167.253 252.624Z" fill="black"/>
<path d="M113.84 118C117.885 118 119.908 118 121.544 118.536C124.822 119.611 127.393 122.191 128.464 125.481C128.834 126.617 128.948 127.939 128.983 129.992C129.008 131.485 129.021 132.232 128.905 133.071C128.788 133.91 128.547 134.706 128.066 136.295L65.1231 344.41C64.012 348.084 59.9741 349.982 56.4503 348.487C39.2497 341.191 25.9232 335.537 16.6306 330.732C12.4651 328.579 10.382 327.502 8.80872 324.992C7.23546 322.483 7.16032 319.785 7.00953 314.392L2.14306 140.309C1.84977 129.818 1.70314 124.572 4.88725 121.286C8.07144 118 13.301 118 23.7587 118H113.84Z" fill="black"/>
<circle cx="171" cy="45" r="43" fill="#267EC5"/>
</svg>
