<svg width="512" height="512" viewBox="0 0 512 512" fill="none" xmlns="http://www.w3.org/2000/svg">
<path d="M311.13 95.3062C403.05 117.687 470.837 195.062 470.837 287.078C470.837 396.596 374.813 485.378 256.362 485.378C137.911 485.378 41.8878 396.596 41.8878 287.078C41.8878 195.062 109.674 117.688 201.593 95.3062C214.573 112.007 234.072 122.815 256.362 122.815C278.652 122.815 298.15 112.007 311.13 95.3062Z" fill="#267EC5"/>
<path d="M446.527 152.327C460.08 152.327 466.857 152.326 470.983 156.585C475.109 160.844 474.919 167.642 474.539 181.237L468.231 406.835C468.036 413.824 467.939 417.32 465.9 420.572C463.861 423.824 461.161 425.219 455.763 428.011C443.721 434.237 426.451 441.564 404.161 451.019C399.594 452.957 394.361 450.496 392.921 445.735L311.353 176.036C310.73 173.976 310.419 172.945 310.268 171.857C310.116 170.77 310.132 169.802 310.165 167.867C310.21 165.208 310.358 163.494 310.837 162.021C312.225 157.758 315.557 154.414 319.805 153.021C321.925 152.326 324.547 152.327 329.789 152.327H446.527Z" fill="black"/>
<path d="M252.155 326.788C255.264 325.687 258.665 325.711 261.759 326.856C266.727 328.696 270.298 335.312 277.437 348.543L328.15 449.945C334.392 462.425 337.513 468.666 335.406 474.334C333.299 480.003 326.848 482.72 313.948 488.152L268.007 507.496C262.615 509.765 259.918 510 257.072 510C254.226 510 251.529 509.765 246.136 507.496L200.027 488.099C187.167 482.689 180.737 479.983 178.623 474.333C176.509 468.683 179.596 462.45 185.768 449.986L236.005 348.543C243.441 335.219 247.16 328.557 252.155 326.788Z" fill="black"/>
<path d="M182.935 152.327C188.178 152.327 190.799 152.326 192.92 153.021C197.168 154.414 200.5 157.758 201.887 162.021C202.367 163.494 202.514 165.207 202.559 167.867C202.592 169.802 202.609 170.77 202.458 171.857C202.307 172.945 201.995 173.976 201.372 176.036L119.802 445.735C118.362 450.496 113.13 452.957 108.563 451.019C86.2726 441.564 69.0026 434.237 56.96 428.01C51.5619 425.219 48.8623 423.824 46.8235 420.572C44.7847 417.32 44.6874 413.824 44.4919 406.835L38.1854 181.237C37.8053 167.642 37.6153 160.844 41.7416 156.585C45.8681 152.327 52.6452 152.327 66.1975 152.327H182.935Z" fill="black"/>
<circle cx="257.01" cy="57.7245" r="55.7245" fill="#267EC5"/>
</svg>
