<svg width="512" height="512" viewBox="0 0 512 512" fill="none" xmlns="http://www.w3.org/2000/svg">
<path d="M297.762 132C368.692 149.27 421 208.977 421 279.981C421 364.491 346.903 433 255.5 433C164.097 433 90 364.491 90 279.981C90 208.977 142.307 149.271 213.237 132C223.253 144.887 238.3 153.227 255.5 153.227C272.7 153.227 287.746 144.887 297.762 132Z" fill="#267EC5"/>
<path d="M402.241 176C412.699 176 417.929 176 421.113 179.286C424.297 182.572 424.15 187.818 423.857 198.309L418.989 372.392C418.839 377.785 418.764 380.483 417.19 382.993C415.617 385.502 413.534 386.579 409.368 388.732C400.076 393.537 386.749 399.191 369.549 406.487C366.025 407.982 361.987 406.084 360.876 402.41L297.933 194.295C297.453 192.706 297.213 191.91 297.096 191.071C296.979 190.232 296.991 189.485 297.017 187.992C297.052 185.94 297.165 184.617 297.535 183.481C298.606 180.191 301.177 177.611 304.455 176.536C306.092 176 308.115 176 312.16 176H402.241Z" fill="black"/>
<path d="M252.253 310.624C254.653 309.774 257.277 309.793 259.664 310.677C263.498 312.096 266.253 317.201 271.762 327.411L310.896 405.658C315.712 415.289 318.12 420.104 316.494 424.479C314.868 428.853 309.891 430.949 299.936 435.141L264.486 450.068C260.325 451.819 258.244 452 256.048 452C253.851 452 251.77 451.819 247.609 450.068L212.029 435.1C202.105 430.925 197.143 428.838 195.512 424.478C193.881 420.117 196.263 415.308 201.026 405.69L239.791 327.411C245.53 317.13 248.399 311.989 252.253 310.624Z" fill="black"/>
<path d="M198.84 176C202.885 176 204.908 176 206.544 176.536C209.822 177.611 212.393 180.191 213.464 183.481C213.834 184.617 213.948 185.939 213.983 187.992C214.008 189.485 214.021 190.232 213.905 191.071C213.788 191.91 213.547 192.706 213.066 194.295L150.123 402.41C149.012 406.084 144.974 407.982 141.45 406.487C124.25 399.191 110.923 393.537 101.631 388.732C97.4651 386.579 95.382 385.502 93.8087 382.992C92.2355 380.483 92.1603 377.785 92.0095 372.392L87.1431 198.309C86.8498 187.818 86.7031 182.572 89.8873 179.286C93.0714 176 98.301 176 108.759 176H198.84Z" fill="black"/>
<circle cx="256" cy="103" r="43" fill="#267EC5"/>
</svg>
